#!OML:ASF F:\VICON\USERDATA\INSTALL\rory3\rory3.ASF
:FULLY-SPECIFIED
:DEGREES
469
root -6.35525 18.1915 -15.5329 14.0227 34.5595 5.56466
lowerback -8.11045 -1.17529 -3.58416
upperback -2.05822 -1.18379 -1.93104
thorax 2.44723 -0.591555 -0.100571
lowerneck -18.0332 -0.118876 2.85382
upperneck 21.7827 -0.192403 -2.99404
head 9.89379 -0.182374 -1.54991
rclavicle 1.21967e-013 3.18055e-015
rhumerus -32.7317 20.1304 -95.2969
rradius 41.2904
rwrist -0.915595
rhand -18.7774 10.5517
rfingers 7.12502
rthumb 7.52002 -19.2946
lclavicle 1.21967e-013 3.18055e-015
lhumerus -33.2261 -16.1477 86.861
lradius 40.2435
lwrist 15.2149
lhand -8.04873 28.1531
lfingers 7.12502
lthumb 17.8619 57.3529
rfemur -15.9275 2.43999 14.0277
rtibia 32.4292
rfoot -22.8857 7.48845
rtoes -6.46289
lfemur -21.7014 1.39152 -22.6296
ltibia 27.4498
lfoot -5.55191 -31.4802
ltoes 12.7112
470
root -6.37671 18.1916 -15.5356 14.1203 35.4181 5.69007
lowerback -8.05301 -1.17844 -3.54272
upperback -2.01811 -1.19249 -1.94132
thorax 2.45608 -0.596071 -0.134632
lowerneck -18.1153 -0.24419 2.66332
upperneck 21.7971 -0.343559 -2.87154
head 9.90997 -0.253749 -1.49619
rclavicle -3.11843e-015 -2.48481e-014
rhumerus -32.7932 20.1867 -95.4255
rradius 41.1628
rwrist -1.01088
rhand -18.8909 10.4899
rfingers 7.12502
rthumb 7.41046 -19.3603
lclavicle -3.11843e-015 -2.48481e-014
lhumerus -33.0623 -15.8873 86.7593
lradius 40.3612
lwrist 15.0093
lhand -7.69919 28.2728
lfingers 7.12502
lthumb 18.1983 57.4415
rfemur -15.721 2.12183 14.1368
rtibia 32.2361
rfoot -22.9311 7.35647
rtoes -6.27353
lfemur -21.771 1.19726 -22.5544
ltibia 27.2978
lfoot -4.75671 -32.1126
ltoes 13.4186
471
root -6.40068 18.1926 -15.5384 14.1597 36.2519 5.70338
lowerback -7.9906 -1.19775 -3.43661
upperback -2.00277 -1.23081 -1.90203
thorax 2.43695 -0.614684 -0.156208
lowerneck -18.0509 -0.33884 2.49962
upperneck 21.6943 -0.450303 -2.77988
head 9.85873 -0.305776 -1.44926
rclavicle -2.06612e-014 1.59028e-014
rhumerus -32.8696 20.344 -95.5872
rradius 40.9782
rwrist -1.0937
rhand -19.1252 10.4539
rfingers 7.12502
rthumb 7.18432 -19.4041
lclavicle -2.06612e-014 1.59028e-014
lhumerus -32.963 -15.6898 86.6997
lradius 40.4362
lwrist 14.9632
lhand -7.46224 28.5088
lfingers 7.12502
lthumb 18.4262 57.6561
rfemur -15.514 1.80715 14.3751
rtibia 31.9675
rfoot -22.9681 7.09407
rtoes -6.14067
lfemur -21.9078 1.07399 -22.3817
ltibia 27.2319
lfoot -3.95785 -32.6827
ltoes 14.1266
472
root -6.42698 18.1939 -15.5392 14.2384 37.015 5.74649
lowerback -7.96742 -1.201 -3.37696
upperback -1.98964 -1.24095 -1.8866
thorax 2.43703 -0.619511 -0.174352
lowerneck -17.8946 -0.43667 2.31547
upperneck 21.4803 -0.572395 -2.62148
head 9.75133 -0.358966 -1.37555
rclavicle -7.38485e-014 1.59028e-015
rhumerus -32.9261 20.3904 -95.7057
rradius 40.7538
rwrist -1.04331
rhand -19.0572 10.7899
rfingers 7.12502
rthumb 7.24997 -19.0659
lclavicle -7.38485e-014 1.59028e-015
lhumerus -32.9002 -15.585 86.6428
lradius 40.536
lwrist 15.1113
lhand -8.14462 28.334
lfingers 7.12502
lthumb 17.7697 57.5421
rfemur -15.3204 1.4347 14.6023
rtibia 31.6484
rfoot -23.0468 6.74212
rtoes -5.86625
lfemur -22.0989 1.12259 -22.2563
ltibia 27.2332
lfoot -3.35389 -33.3687
ltoes 14.0175
473
root -6.45334 18.1948 -15.5401 14.3682 37.764 5.75807
lowerback -8.00649 -1.17163 -3.29002
upperback -1.98732 -1.20648 -1.88549
thorax 2.45868 -0.601993 -0.219211
lowerneck -17.8806 -0.571056 2.12576
upperneck 21.3866 -0.760009 -2.40247
head 9.7123 -0.436074 -1.29118
rclavicle 3.54706e-014 -3.77691e-015
rhumerus -32.9822 20.3212 -95.8017
rradius 40.583
rwrist -0.965383
rhand -19.0246 11.0936
rfingers 7.12502
rthumb 7.28137 -18.7611
lclavicle 3.54706e-014 -3.77691e-015
lhumerus -32.7592 -15.4073 86.5348
lradius 40.5605
lwrist 15.0766
lhand -9.64432 27.5945
lfingers 7.12502
lthumb 16.3261 56.9272
rfemur -15.1796 0.997168 14.8642
rtibia 31.2935
rfoot -23.1174 6.3501
rtoes -5.69514
lfemur -22.3936 1.20018 -22.1178
ltibia 27.2994
lfoot -2.90538 -34.0201
ltoes 13.6243
474
root -6.48057 18.195 -15.5409 14.492 38.4789 5.71155
lowerback -8.06252 -1.15575 -3.23105
upperback -2.00052 -1.19052 -1.79283
thorax 2.47662 -0.593909 -0.155871
lowerneck -17.9494 -0.700423 1.89733
upperneck 21.3954 -0.899828 -2.30134
head 9.72638 -0.507754 -1.23709
rclavicle 5.51876e-014 -2.40529e-014
rhumerus -33.0831 20.3812 -95.8069
rradius 40.4761
rwrist -0.963343
rhand -18.8576 11.0191
rfingers 7.12502
rthumb 7.44262 -18.83
lclavicle 5.51876e-014 -2.40529e-014
lhumerus -32.6926 -15.1386 86.5584
lradius 40.6002
lwrist 15.0903
lhand -10.3951 27.1343
lfingers 7.12502
lthumb 15.6031 56.525
rfemur -15.0862 0.621685 15.1971
rtibia 30.938
rfoot -23.2151 5.88284
rtoes -5.65119
lfemur -22.7349 1.17587 -21.9222
ltibia 27.388
lfoot -2.46967 -34.4453
ltoes 13.5161
475
root -6.50564 18.1988 -15.5411 14.5606 39.1335 5.67603
lowerback -8.06729 -1.11645 -3.11812
upperback -2.00584 -1.14937 -1.73158
thorax 2.47199 -0.57291 -0.151649
lowerneck -18.0339 -0.841703 1.73162
upperneck 21.4156 -1.05176 -2.29134
head 9.74657 -0.59057 -1.2273
rclavicle 5.48646e-014 -1.99779e-014
rhumerus -33.1718 20.3749 -95.8327
rradius 40.3197
rwrist -0.973236
rhand -18.5938 10.885
rfingers 7.12502
rthumb 7.69724 -18.9549
lclavicle 5.48646e-014 -1.99779e-014
lhumerus -32.7035 -14.9578 86.5702
lradius 40.6929
lwrist 15.1799
lhand -9.39779 27.5785
lfingers 7.12502
lthumb 16.5635 56.8916
rfemur -14.9172 0.195627 15.515
rtibia 30.5958
rfoot -23.3198 5.39226
rtoes -5.71008
lfemur -22.9676 1.03946 -21.7411
ltibia 27.4536
lfoot -1.96062 -34.5783
ltoes 13.62
476
root -6.53179 18.2041 -15.541 14.701 39.7901 5.76698
lowerback -8.05668 -1.07424 -3.06561
upperback -2.03232 -1.09771 -1.74606
thorax 2.43644 -0.546087 -0.190185
lowerneck -17.9799 -1.0135 1.56964
upperneck 21.3635 -1.27045 -2.18214
head 9.71504 -0.692124 -1.19029
rclavicle -1.06101e-014 -1.86858e-014
rhumerus -33.3579 20.3009 -95.9613
rradius 40.2248
rwrist -1.0444
rhand -18.4536 10.5927
rfingers 7.12502
rthumb 7.8325 -19.2422
lclavicle -1.06101e-014 -1.86858e-014
lhumerus -32.7306 -14.8333 86.5236
lradius 40.6593
lwrist 15.1591
lhand -8.48191 28.1139
lfingers 7.12502
lthumb 17.4451 57.3511
rfemur -14.7531 -0.263473 15.7236
rtibia 30.283
rfoot -23.4388 5.01235
rtoes -5.36893
lfemur -23.1723 1.01286 -21.6922
ltibia 27.4524
lfoot -1.22496 -34.8209
ltoes 14.111
477
root -6.5643 18.2004 -15.5432 14.8238 40.5529 5.78981
lowerback -7.99828 -1.06536 -2.98879
upperback -2.07895 -1.09666 -1.71421
thorax 2.35502 -0.543946 -0.198512
lowerneck -17.8546 -1.18665 1.3432
upperneck 21.2316 -1.48706 -2.01418
head 9.64403 -0.79146 -1.12003
rclavicle 8.38623e-015 1.73937e-014
rhumerus -33.551 20.1383 -96.0382
rradius 40.1056
rwrist -1.10436
rhand -18.3486 10.45
rfingers 7.12502
rthumb 7.93391 -19.3811
lclavicle 8.38623e-015 1.73937e-014
lhumerus -32.7648 -14.7494 86.5533
lradius 40.5183
lwrist 15.0695
lhand -8.57644 28.046
lfingers 7.12502
lthumb 17.3541 57.2913
rfemur -14.6533 -0.730631 16.0392
rtibia 29.9884
rfoot -23.6397 4.59484
rtoes -4.66452
lfemur -23.4314 0.932102 -21.5327
ltibia 27.4045
lfoot -0.498256 -35.3263
ltoes 14.3682
478
root -6.59843 18.1979 -15.5481 14.9842 41.271 5.94439
lowerback -7.8444 -1.05439 -3.0244
upperback -2.11217 -1.08735 -1.69406
thorax 2.23615 -0.537899 -0.153553
lowerneck -17.7956 -1.3469 1.16954
upperneck 21.1523 -1.67863 -1.93811
head 9.60391 -0.885595 -1.08846
rclavicle -7.12892e-014 7.15625e-015
rhumerus -33.6349 19.9021 -96.0272
rradius 39.7785
rwrist -0.761718
rhand -18.4003 10.7556
rfingers 7.12502
rthumb 7.88402 -19.0774
lclavicle -7.12892e-014 7.15625e-015
lhumerus -32.8324 -14.6256 86.6183
lradius 40.5123
lwrist 15.2605
lhand -9.29363 27.6138
lfingers 7.12502
lthumb 16.6638 56.9185
rfemur -14.5185 -1.21846 16.2399
rtibia 29.7111
rfoot -23.9514 4.12385
rtoes -4.54932
lfemur -23.618 0.647619 -21.4487
ltibia 27.3065
lfoot 0.317566 -35.6968
ltoes 14.4132
479
root -6.62582 18.2004 -15.551 15.2359 41.818 6.08167
lowerback -7.90199 -1.03497 -3.01443
upperback -2.16147 -1.06033 -1.68801
thorax 2.21657 -0.523399 -0.1507
lowerneck -17.6461 -1.46835 0.987386
upperneck 21.0073 -1.82984 -1.79611
head 9.52607 -0.954258 -1.02536
rclavicle 1.6729e-014 5.36719e-015
rhumerus -33.7057 19.937 -96.1538
rradius 39.3353
rwrist -0.259836
rhand -18.8719 10.9987
rfingers 7.12502
rthumb 7.4288 -18.8509
lclavicle 1.6729e-014 5.36719e-015
lhumerus -32.8995 -14.2959 86.6024
lradius 40.4999
lwrist 15.5644
lhand -10.1588 27.1984
lfingers 7.12502
lthumb 15.8307 56.5712
rfemur -14.5309 -1.71205 16.4067
rtibia 29.4527
rfoot -24.1051 3.8224
rtoes -4.48691
lfemur -23.8508 0.239992 -21.3771
ltibia 27.1856
lfoot 0.803215 -35.7142
ltoes 14.0144
